<svg width="25" height="24" viewBox="0 0 25 24" fill="none" xmlns="http://www.w3.org/2000/svg">
<g clip-path="url(#clip0)">
<path d="M10.814 4.8331C10.814 3.34592 9.60439 2.13632 8.11721 2.13632C6.6296 2.13632 5.41956 3.34592 5.41956 4.8331C5.41956 6.32027 6.6296 7.52987 8.11721 7.52987C9.60439 7.53031 10.814 6.32027 10.814 4.8331ZM6.91997 4.8331C6.91997 4.17335 7.45703 3.63674 8.11721 3.63674C8.77739 3.63674 9.31357 4.17335 9.31357 4.8331C9.31357 5.49284 8.77739 6.02945 8.11721 6.02945C7.45703 6.02945 6.91997 5.49284 6.91997 4.8331Z" fill="#010101"/>
<path d="M16.2345 7.4169H12.235C12.7147 6.53916 13.0496 5.66803 13.0496 4.93371C13.0496 2.21355 10.8365 0 8.11724 0C5.39708 0 3.18441 2.21355 3.18441 4.93371C3.18441 5.66803 3.51891 6.53916 3.99904 7.4169H0V24H14.7341H16.2345H21.6139C23.252 24 24.5843 22.6673 24.5843 21.0296V11.6198L16.2345 11.6185V7.4169ZM8.11724 1.50086C10.0091 1.50086 11.5488 3.04054 11.5488 4.93371C11.5488 6.23157 9.62383 8.80655 8.11724 10.4835C6.61065 8.80655 4.68526 6.23157 4.68526 4.93371C4.68526 3.04054 6.22451 1.50086 8.11724 1.50086ZM14.7341 22.4996H1.50086V8.91731H4.8353V8.76815C5.97341 10.4182 7.32467 11.8449 7.57709 12.1061L8.11768 12.667L8.65827 12.1061C8.90981 11.8444 10.2606 10.4191 11.3983 8.76948V8.91687H14.7341V11.6181V22.4996ZM23.0843 13.1207V21.0296C23.0843 21.8403 22.425 22.4996 21.6143 22.4996H16.2345V13.1194L23.0843 13.1207Z" fill="#010101"/>
<path d="M6.56475 18.268H5.06433V21.0305H6.56475V18.268Z" fill="#010101"/>
<path d="M6.56475 12.7433H5.06433V15.5059H6.56475V12.7433Z" fill="#010101"/>
<path d="M11.1687 18.268H9.66833V21.0305H11.1687V18.268Z" fill="#010101"/>
<path d="M11.1687 12.7433H9.66833V15.5059H11.1687V12.7433Z" fill="#010101"/>
<path d="M21.181 15.1833H18.2468V16.6837H21.181V15.1833Z" fill="#010101"/>
<path d="M21.181 18.8664H18.2468V20.3668H21.181V18.8664Z" fill="#010101"/>
</g>
<defs>
<clipPath id="clip0">
<rect width="24.5843" height="24" fill="white"/>
</clipPath>
</defs>
</svg>
